<?xml version="1.0" standalone="no"?><!DOCTYPE svg PUBLIC "-//W3C//DTD SVG 1.1//EN" "http://www.w3.org/Graphics/SVG/1.1/DTD/svg11.dtd"><svg t="1630804825976" class="icon" viewBox="0 0 1024 1024" version="1.1" xmlns="http://www.w3.org/2000/svg" p-id="2379" xmlns:xlink="http://www.w3.org/1999/xlink" width="200" height="200"><defs><style type="text/css"></style></defs><path d="M860.8 611.2c-9.6-12.8-25.6-16-38.4-9.6L512 803.2l-307.2-198.4c-12.8-9.6-32-3.2-38.4 9.6-9.6 12.8-3.2 32 9.6 38.4l323.2 208c3.2 0 3.2 3.2 6.4 3.2h12.8c3.2 0 6.4-3.2 6.4-3.2l323.2-208c16-9.6 19.2-28.8 12.8-41.6z m0-115.2c-9.6-12.8-25.6-16-38.4-9.6L512 688l-307.2-198.4c-12.8-9.6-32-3.2-38.4 9.6-9.6 12.8-3.2 32 9.6 38.4l323.2 208c3.2 0 3.2 3.2 6.4 3.2h12.8c3.2 0 6.4-3.2 6.4-3.2l323.2-208c16-9.6 19.2-25.6 12.8-41.6z m-9.6-121.6L528 166.4c-3.2 0-3.2-3.2-6.4-3.2h-12.8c-3.2 0-6.4 3.2-6.4 3.2L172.8 371.2c-9.6 6.4-12.8 16-12.8 25.6 0 9.6 3.2 19.2 12.8 25.6l323.2 208c3.2 0 3.2 3.2 6.4 3.2h12.8c3.2 0 6.4-3.2 6.4-3.2l323.2-208c16-6.4 19.2-16 19.2-25.6 0-9.6-3.2-19.2-12.8-22.4z" p-id="2380"></path></svg>