<?xml version="1.0" standalone="no"?><!DOCTYPE svg PUBLIC "-//W3C//DTD SVG 1.1//EN" "http://www.w3.org/Graphics/SVG/1.1/DTD/svg11.dtd"><svg t="1591180095311" class="icon" viewBox="0 0 1024 1024" version="1.1" xmlns="http://www.w3.org/2000/svg" p-id="65116" xmlns:xlink="http://www.w3.org/1999/xlink" width="200" height="200"><defs><style type="text/css"></style></defs><path d="M959.382307 741.922576c0 49.503461-40.130999 89.63446-89.63446 89.63446L151.577231 831.557036c-49.503461 0-89.63446-40.130999-89.63446-89.63446L61.942771 240.691851c0-49.503461 40.130999-89.63446 89.63446-89.63446l718.170616 0c49.503461 0 89.63446 40.130999 89.63446 89.63446L959.382307 741.922576zM919.473365 239.630682c0-29.702486-24.078395-53.780881-53.780881-53.780881L149.492756 185.849802c-29.702486 0-53.780881 24.078395-53.780881 53.780881l0 501.30645c0 29.702486 24.078395 53.780881 53.780881 53.780881l716.200752 0c29.702486 0 53.780881-24.078395 53.780881-53.780881L919.474388 239.630682z" p-id="65117"></path><path d="M78.31567 349.578794l863.670431 0 0 143.262868-863.670431 0 0-143.262868Z" p-id="65118"></path><path d="M185.762821 671.920246l179.078585 0 0 53.211922-179.078585 0 0-53.211922Z" p-id="65119"></path></svg>