<?xml version="1.0" standalone="no"?><!DOCTYPE svg PUBLIC "-//W3C//DTD SVG 1.1//EN" "http://www.w3.org/Graphics/SVG/1.1/DTD/svg11.dtd"><svg t="1591180012992" class="icon" viewBox="0 0 1024 1024" version="1.1" xmlns="http://www.w3.org/2000/svg" p-id="63032" xmlns:xlink="http://www.w3.org/1999/xlink" width="200" height="200"><defs><style type="text/css"></style></defs><path d="M854.569 241.672h-138.1v-61.228c0-46.616-40.144-87.515-85.906-87.515h-235.8c-45.982 0-86.323 40.898-86.323 87.515v61.228h-138.1c-14.097 0-25.514 11.436-25.514 25.531v538.151c0 70.005 54.082 126.984 120.571 126.984h494.511c66.273 0 120.194-56.98 120.194-126.984v-538.151c0.001-14.095-11.434-25.531-25.531-25.531zM359.502 180.443c0-18.067 17.788-36.451 35.261-36.451h235.8c17.609 0 34.882 18.067 34.882 36.451v61.228h-305.944v-61.228zM308.439 292.735v82.433c-7.425 7.187-12.071 17.232-12.071 28.39 0 21.879 17.77 39.668 39.668 39.668 21.879 0 39.628-17.789 39.628-39.668 0-13.064-6.392-24.579-16.162-31.807v-79.016h305.944v79.016c-9.787 7.227-16.2 18.742-16.2 31.807 0 21.879 17.748 39.668 39.646 39.668 21.899 0 39.648-17.789 39.648-39.668 0-11.158-4.647-21.203-12.071-28.39v-82.433h112.589v457.902h-633.19v-457.902h112.571zM759.907 881.273h-494.511c-38.337 0-69.528-34.028-69.528-75.92v-10.086h633.19v10.086c-0.001 41.892-31.031 75.92-69.152 75.92z" p-id="63033"></path></svg>