<?xml version="1.0" standalone="no"?><!DOCTYPE svg PUBLIC "-//W3C//DTD SVG 1.1//EN" "http://www.w3.org/Graphics/SVG/1.1/DTD/svg11.dtd"><svg t="1630982883005" class="icon" viewBox="0 0 1024 1024" version="1.1" xmlns="http://www.w3.org/2000/svg" p-id="3325" xmlns:xlink="http://www.w3.org/1999/xlink" width="200" height="200"><defs><style type="text/css"></style></defs><path d="M910.222 432.356c-12.584 0-22.755-10.172-22.755-22.756V240.185L568.525 595.33c-1.912 23.37-21.277 41.825-45.147 41.825-21.231 0-38.89-14.61-43.941-34.248L353.599 476.001c-3.937 1.092-7.988 1.866-12.266 1.866s-8.328-0.774-12.265-1.866L176.082 630.26c-9.102 8.692-23.847 8.692-32.927 0-4.255-4.05-6.349-9.353-6.622-14.7v180.883c0 25.123 20.39 45.512 45.511 45.512h614.4c25.123 0 45.512-20.39 45.512-45.512V568.89c0-12.584 10.171-22.756 22.755-22.756s22.756 10.172 22.756 22.756V819.2c0 37.683-30.584 68.267-68.267 68.267H159.289c-37.683 0-68.267-30.584-68.267-68.267V204.8c0-37.683 30.584-68.267 68.267-68.267H546.133c12.584 0 22.756 10.172 22.756 22.756s-10.172 22.755-22.756 22.755H182.044c-25.122 0-45.51 20.39-45.51 45.512v385.98c0.272-5.326 2.366-10.628 6.621-14.7l154.146-155.49c-0.864-3.527-1.479-7.168-1.479-10.99 0-25.123 20.39-45.512 45.511-45.512s45.511 20.39 45.511 45.512c0 3.822-0.614 7.463-1.479 10.99l110.956 111.89c7.578-5.644 16.885-9.103 27.057-9.103 8.283 0 15.951 2.367 22.619 6.235L858.18 204.8H682.667c-12.584 0-22.756-10.172-22.756-22.756s10.172-22.755 22.756-22.755h227.555c12.584 0 22.756 10.172 22.756 22.755V409.6c0 12.584-10.172 22.756-22.756 22.756z" fill="" p-id="3326"></path></svg>